# xmcd
#
# Track frame offsets: 
#        150
#        22986
#        39610
#        50215
#        67031
#        86516
#        100420
#        117912
#        143908
#        159187
#        176443
#        189655
#        205103
#        222186
#
# Disc length: 3228 seconds
#
# Revision: 0
# Processed by: cddbd v1.5.2PL0 Copyright (c) Steve Scherf et al.
# Submitted via: ExactAudioCopyFreeDBPlugin 1.0
#
DISCID=c50c9a0e
DTITLE=Pickin' On Series - The Best of Pickin' on Eric Clapton: The Ul
DTITLE=timate Bluegrass Tribute
DYEAR=2006
DGENRE=Country
TTITLE0=Sunshine of Your Love
TTITLE1=After Midnight
TTITLE2=Cocaine
TTITLE3=Change the World
TTITLE4=Tears in Heaven
TTITLE5=Promises
TTITLE6=Wonderful Tonight
TTITLE7=Layla
TTITLE8=Lay Down Sally
TTITLE9=I Shot the Sheriff
TTITLE10=Strange Brew
TTITLE11=Crossroads (Cross Road Blues)
TTITLE12=Tulsa Time
TTITLE13=White Room
EXTD=
EXTT0=
EXTT1=
EXTT2=
EXTT3=
EXTT4=
EXTT5=
EXTT6=
EXTT7=
EXTT8=
EXTT9=
EXTT10=
EXTT11=
EXTT12=
EXTT13=
PLAYORDER=
